<?xml version="1.0" standalone="no"?>
<!DOCTYPE svg PUBLIC "-//W3C//DTD SVG 20010904//EN"
 "http://www.w3.org/TR/2001/REC-SVG-20010904/DTD/svg10.dtd">
<svg version="1.0" xmlns="http://www.w3.org/2000/svg"
 width="2083.000000pt" height="2083.000000pt" viewBox="0 0 2083.000000 2083.000000"
 preserveAspectRatio="xMidYMid meet">

<g transform="translate(0.000000,2083.000000) scale(0.100000,-0.100000)"
fill="#000000" stroke="none">
<path d="M5064 20810 c-108 -22 -206 -97 -255 -195 -35 -71 -59 -207 -104
-595 -71 -613 -90 -981 -90 -1720 0 -635 5 -777 46 -1260 117 -1397 433 -2727
942 -3960 307 -744 721 -1506 1166 -2149 75 -108 146 -209 158 -226 l22 -30
-35 -140 c-203 -819 -280 -1930 -199 -2893 39 -458 128 -1025 209 -1328 134
-498 523 -884 1040 -1031 84 -24 110 -26 331 -30 232 -5 244 -4 360 22 255 57
532 167 751 297 187 111 334 227 494 389 80 80 170 163 200 183 166 108 396
122 575 34 86 -42 113 -64 275 -228 80 -80 189 -179 243 -219 275 -205 588
-354 932 -443 l130 -33 260 0 c254 0 262 1 359 28 403 112 737 379 925 738 94
179 150 387 225 831 168 992 177 2042 25 3043 -35 230 -86 490 -129 661 l-30
119 40 55 c1071 1498 1765 3188 2095 5105 89 517 146 1021 187 1660 20 310 17
1371 -5 1700 -30 451 -85 983 -132 1269 -32 201 -135 313 -318 347 -85 16
-177 -5 -257 -58 -66 -43 -688 -663 -856 -853 -1120 -1262 -1900 -2613 -2417
-4185 -319 -968 -519 -2024 -544 -2871 l-6 -211 -41 9 c-186 42 -579 91 -871
108 -482 28 -1087 -11 -1516 -99 l-86 -18 -6 206 c-20 618 -139 1405 -323
2119 -403 1569 -1103 3004 -2087 4281 -133 172 -366 452 -542 651 -175 197
-797 818 -865 863 -86 57 -180 76 -276 57z m3286 -12809 c362 -48 645 -144
866 -291 104 -70 258 -225 318 -322 98 -158 156 -352 158 -532 4 -229 -110
-285 -549 -273 -199 5 -302 22 -459 72 -114 37 -293 126 -409 202 -129 86
-335 290 -424 421 -121 179 -209 384 -251 586 -21 101 -18 134 17 156 30 18
556 5 733 -19z m4871 18 c35 -18 39 -50 19 -151 -51 -248 -171 -500 -331 -693
-250 -304 -603 -510 -986 -575 -82 -14 -161 -20 -277 -20 -290 0 -403 27 -461
109 -40 59 -48 108 -35 233 26 262 131 480 317 658 106 103 194 162 345 235
229 110 514 178 852 204 159 13 534 13 557 0z"/>
<path d="M4450 3705 l0 -145 190 0 190 0 0 -715 0 -715 145 0 145 0 0 715 0
715 190 0 190 0 0 145 0 145 -525 0 -525 0 0 -145z"/>
<path d="M5750 2990 l0 -860 145 0 145 0 0 355 0 355 395 0 395 0 0 -355 0
-355 140 0 140 0 0 860 0 860 -140 0 -140 0 0 -360 0 -360 -395 0 -395 0 -2
358 -3 357 -142 3 -143 3 0 -861z"/>
<path d="M7367 3843 c-4 -3 -7 -390 -7 -860 l0 -853 535 0 535 0 0 140 0 140
-390 0 -390 0 0 215 0 215 330 0 330 0 0 145 0 145 -330 0 -330 0 0 215 0 215
390 0 390 0 0 145 0 145 -528 0 c-291 0 -532 -3 -535 -7z"/>
<path d="M9360 2991 l0 -861 140 0 140 0 0 355 0 356 111 -3 112 -3 241 -352
241 -352 173 0 c96 -1 172 3 170 7 -1 5 -110 163 -240 353 -130 189 -237 349
-236 354 0 6 28 20 61 32 156 56 273 189 312 355 59 252 -86 507 -335 590 -62
21 -86 22 -477 26 l-413 3 0 -860z m836 545 c135 -63 165 -235 59 -341 -60
-60 -88 -65 -369 -65 l-246 0 0 208 c0 115 3 212 7 215 3 4 117 7 252 7 238 0
248 -1 297 -24z"/>
<path d="M10950 2990 l0 -860 140 0 140 0 0 860 0 860 -140 0 -140 0 0 -860z"/>
<path d="M12245 3840 c-343 -48 -609 -266 -717 -590 -31 -92 -32 -101 -33
-265 0 -167 1 -172 33 -265 77 -222 221 -390 422 -495 141 -72 218 -90 395
-90 173 0 250 17 383 84 92 46 204 128 200 146 -2 7 -45 56 -96 109 l-93 96
-42 -34 c-96 -77 -218 -119 -352 -120 -162 0 -287 53 -405 173 -205 207 -224
512 -47 746 107 142 266 219 452 220 129 0 215 -26 321 -97 l77 -51 93 99 c51
54 93 102 94 106 1 17 -121 102 -205 143 -145 71 -337 105 -480 85z"/>
<path d="M13190 2990 l0 -860 140 0 140 0 0 355 0 355 395 0 395 0 0 -355 0
-355 145 0 145 0 0 860 0 860 -145 0 -145 0 0 -360 0 -360 -395 0 -395 0 0
360 0 360 -140 0 -140 0 0 -860z"/>
<path d="M14800 3635 l0 -215 85 0 c47 0 85 3 85 8 0 4 27 100 59 215 l58 207
-143 0 -144 0 0 -215z"/>
<path d="M15745 3839 c-112 -19 -202 -66 -278 -148 -169 -180 -169 -464 -1
-650 59 -65 125 -101 320 -175 207 -78 226 -87 258 -129 68 -89 46 -224 -46
-285 -38 -25 -49 -27 -143 -27 -94 0 -104 2 -144 28 -34 23 -73 78 -86 124 -1
2 -211 -33 -254 -43 -21 -4 -22 -9 -16 -42 22 -116 131 -250 251 -308 143 -69
350 -70 489 -4 125 59 226 181 261 314 16 60 18 173 3 236 -16 69 -66 164
-115 214 -68 72 -135 108 -334 182 -191 71 -236 98 -267 158 -23 44 -20 123 6
174 33 65 86 94 179 100 102 6 153 -9 204 -60 l40 -40 122 57 c66 32 123 59
125 61 10 8 -53 95 -103 142 -114 108 -286 152 -471 121z"/>
<path d="M5937 1383 c-28 -55 -597 -1300 -597 -1307 0 -3 24 -6 53 -6 l53 0
99 218 c54 119 103 223 108 230 7 9 85 12 327 12 l317 0 104 -230 104 -229 57
-1 57 0 -40 88 c-22 48 -158 343 -301 657 -144 314 -265 576 -271 583 -17 22
-55 14 -70 -15z m182 -464 c72 -158 131 -289 131 -293 0 -3 -124 -6 -276 -6
-161 0 -274 4 -272 9 2 5 64 142 137 305 80 175 138 291 142 284 4 -7 66 -142
138 -299z"/>
<path d="M8440 748 c-166 -365 -305 -667 -307 -671 -3 -4 21 -7 52 -5 l58 3
103 225 103 225 322 0 323 0 104 -227 105 -228 53 0 c30 0 54 2 54 4 0 2 -137
303 -304 668 -295 644 -305 663 -333 666 l-29 3 -304 -663z m469 180 c74 -161
136 -296 138 -300 2 -5 -122 -8 -275 -8 l-280 0 136 300 c75 165 139 300 142
300 4 0 66 -132 139 -292z"/>
<path d="M10031 1390 c-204 -54 -357 -173 -441 -345 -55 -112 -73 -189 -72
-315 1 -260 138 -483 364 -594 137 -68 197 -81 363 -80 157 0 257 19 391 75
l74 31 0 254 0 254 -196 0 -195 0 3 -43 3 -42 138 -3 137 -3 0 -175 0 -175
-47 -21 c-81 -36 -143 -49 -263 -55 -184 -9 -311 23 -435 112 -310 221 -295
750 27 953 123 77 162 87 343 87 155 -1 163 -2 255 -33 52 -18 119 -46 148
-62 61 -33 65 -30 60 46 l-3 48 -104 39 c-58 21 -134 45 -170 53 -98 20 -289
17 -380 -6z"/>
<path d="M3960 736 l0 -666 55 0 55 0 2 581 3 581 243 -301 c134 -166 247
-301 250 -301 4 0 117 136 252 303 l245 303 3 -583 2 -583 55 0 55 0 -2 663
-3 662 -50 3 -50 3 -250 -306 c-137 -168 -254 -304 -259 -302 -5 2 -120 138
-255 303 l-246 299 -53 3 -52 3 0 -665z"/>
<path d="M6777 1393 c-4 -3 -7 -303 -7 -665 l0 -658 55 0 55 0 2 574 3 574
499 -574 498 -574 44 0 44 0 0 665 0 665 -50 0 -50 0 0 -575 c0 -316 -3 -575
-7 -574 -5 0 -208 232 -453 515 -594 687 -544 634 -589 634 -21 0 -41 -3 -44
-7z"/>
<path d="M10977 1393 c-4 -3 -7 -303 -7 -665 l0 -658 370 0 370 0 0 45 0 45
-315 0 -315 0 0 265 0 265 300 0 300 0 0 45 0 45 -300 0 -300 0 0 265 0 265
311 0 310 0 -3 43 -3 42 -356 3 c-195 1 -358 -1 -362 -5z"/>
<path d="M11920 736 l0 -666 50 0 50 0 2 587 3 586 248 -306 c136 -169 251
-307 255 -307 4 0 117 137 252 304 l245 303 3 -583 2 -584 55 0 55 0 -2 663
-3 662 -50 3 -50 3 -250 -306 c-137 -168 -254 -304 -259 -302 -6 2 -121 138
-256 303 l-246 299 -52 3 -52 3 0 -665z"/>
<path d="M13447 1393 c-4 -3 -7 -303 -7 -665 l0 -658 370 0 370 0 0 45 0 45
-315 0 -315 0 0 265 0 265 300 0 300 0 0 45 0 45 -300 0 -300 0 0 265 0 265
311 0 310 0 -3 43 -3 42 -356 3 c-195 1 -358 -1 -362 -5z"/>
<path d="M14390 735 l0 -665 55 0 55 0 2 571 3 572 495 -571 495 -571 48 0 47
-1 -2 662 -3 663 -50 0 -50 0 -5 -573 -5 -573 -499 576 -499 575 -43 0 -44 0
0 -665z"/>
<path d="M15747 1393 c-4 -3 -7 -24 -7 -45 l0 -38 250 0 250 0 0 -620 0 -620
55 0 55 0 0 620 0 620 251 0 250 0 -3 43 -3 42 -546 3 c-300 1 -549 -1 -552
-5z"/>
</g>
</svg>
